<svg width="256" height="256" viewBox="0 0 256 256" fill="none" xmlns="http://www.w3.org/2000/svg">
<path d="M85.3333 74.6667H106.667C109.615 74.6667 112 77.0522 112 80.0001V100C112 102.948 109.615 105.333 106.667 105.333H85.3333C82.3854 105.333 80 102.948 80 100V80.0001C80 77.0522 82.3854 74.6667 85.3333 74.6667Z" fill="url(#paint0_linear)"/>
<path d="M98.6666 84C98.6666 86.2083 100.458 88 102.667 88C104.875 88 106.667 86.2083 106.667 84C106.667 81.7917 104.875 80 102.667 80C100.458 80 98.6666 81.7917 98.6666 84Z" fill="#FFF9C4"/>
<path d="M112 98.9378V101.334C112 101.709 111.969 102.052 111.896 102.396C111.604 103.844 110.719 105.063 109.521 105.792C108.698 106.344 107.708 106.667 106.667 106.667H94.6666V102.375L99.8645 97.4691L103.437 94.0524C104.51 93.0628 106.156 93.0941 107.177 94.1045L112 98.9378Z" fill="url(#paint1_linear)"/>
<path d="M108.635 106.24C108.031 106.532 107.365 106.667 106.667 106.667H85.3333C82.7187 106.667 80.5313 104.771 80.0833 102.271C80.0313 101.969 80 101.657 80 101.334V95.7921L87.4375 88.7192C88.5104 87.7296 90.1563 87.7608 91.1771 88.7712L108.635 106.24Z" fill="url(#paint2_linear)"/>
<path d="M85.3333 112H106.667C109.615 112 112 114.385 112 117.333V138.667C112 141.615 109.615 144 106.667 144H85.3333C82.3854 144 80 141.615 80 138.667V117.333C80 114.385 82.3854 112 85.3333 112Z" fill="url(#paint3_linear)"/>
<path d="M104.708 128.531C104.26 128.271 103.521 128.104 102.656 128C103.521 127.896 104.26 127.729 104.708 127.458C106.583 126.354 107.219 123.917 106.146 122C105.063 120.083 102.677 119.427 100.813 120.542C100.354 120.802 99.8438 121.385 99.3229 122.104C99.6667 121.281 99.9063 120.531 99.9063 119.99C99.9063 117.781 98.1563 116 96 116C93.8438 116 92.0938 117.781 92.0938 119.99C92.0938 120.531 92.3334 121.281 92.6771 122.104C92.1563 121.385 91.6354 120.802 91.1875 120.542C89.3229 119.427 86.9271 120.083 85.8542 122C84.7813 123.917 85.4167 126.354 87.2813 127.458C87.7396 127.729 88.4792 127.896 89.3438 128C88.4792 128.104 87.7396 128.271 87.2813 128.531C85.4167 129.635 84.7813 132.083 85.8542 134C86.9271 135.917 89.3229 136.573 91.1875 135.458C91.6354 135.198 92.1563 134.615 92.6771 133.896C92.3334 134.719 92.0938 135.469 92.0938 136C92.0938 138.219 93.8438 140 96 140C98.1563 140 99.9063 138.219 99.9063 136C99.9063 135.469 99.6667 134.719 99.3229 133.896C99.8438 134.615 100.365 135.198 100.813 135.458C102.677 136.573 105.063 135.917 106.146 134C107.219 132.083 106.583 129.635 104.708 128.531Z" fill="white"/>
<path d="M100 128.146C100 130.354 98.2083 132.146 96 132.146C93.7917 132.146 92 130.354 92 128.146C92 125.937 93.7917 124.146 96 124.146C98.2083 124.146 100 125.937 100 128.146Z" fill="url(#paint4_linear)"/>
<path d="M85.3333 149.333H106.667C109.615 149.333 112 151.719 112 154.667V176C112 178.948 109.615 181.333 106.667 181.333H85.3333C82.3854 181.333 80 178.948 80 176V154.667C80 151.719 82.3854 149.333 85.3333 149.333Z" fill="url(#paint5_linear)"/>
<path d="M105.313 169.208C105.073 168.292 105.333 167.302 106.01 166.635L107.313 165.323L106.01 164.021C105.333 163.344 105.073 162.365 105.313 161.438L105.792 159.667L104.01 159.188C103.083 158.948 102.365 158.229 102.125 157.302L101.646 155.531L99.875 156.01C98.9583 156.25 97.9792 155.99 97.3021 155.313L96 154.01L94.6979 155.313C94.0208 155.99 93.0417 156.25 92.125 156.01L90.3438 155.531L89.8646 157.313C89.6146 158.229 88.8958 158.948 87.9792 159.198L86.1979 159.677L86.6771 161.458C86.9167 162.375 86.6563 163.354 85.9792 164.031L84.6875 165.323L85.9792 166.625C86.6563 167.302 86.9167 168.281 86.6771 169.198L86.1979 170.979L87.9688 171.458C88.8958 171.708 89.6146 172.427 89.8542 173.344L90.3333 175.125L92.125 174.646C93.0417 174.406 94.0208 174.667 94.6979 175.344L96 176.635L97.3021 175.333C97.9792 174.656 98.9583 174.396 99.875 174.646L101.656 175.125L102.125 173.344C102.375 172.427 103.094 171.708 104.01 171.458L105.792 170.979L105.313 169.208Z" fill="url(#paint6_radial)"/>
<path d="M88 165.333C88 169.75 91.5833 173.333 96 173.333C100.417 173.333 104 169.75 104 165.333C104 160.917 100.417 157.333 96 157.333C91.5833 157.333 88 160.917 88 165.333Z" fill="url(#paint7_linear)"/>
<path d="M125.333 122.667H173.333C174.802 122.667 176 123.865 176 125.333V130.667C176 132.135 174.802 133.333 173.333 133.333H125.333C123.865 133.333 122.667 132.135 122.667 130.667V125.333C122.667 123.865 123.865 122.667 125.333 122.667Z" fill="url(#paint8_linear)"/>
<path d="M125.333 160H173.333C174.802 160 176 161.198 176 162.667V168C176 169.469 174.802 170.667 173.333 170.667H125.333C123.865 170.667 122.667 169.469 122.667 168V162.667C122.667 161.198 123.865 160 125.333 160Z" fill="url(#paint9_linear)"/>
<path d="M125.333 85.3335H173.333C174.802 85.3335 176 86.5314 176 88.0002V93.3335C176 94.8022 174.802 96.0002 173.333 96.0002H125.333C123.865 96.0002 122.667 94.8022 122.667 93.3335V88.0002C122.667 86.5314 123.865 85.3335 125.333 85.3335Z" fill="url(#paint10_linear)"/>
<defs>
<linearGradient id="paint0_linear" x1="93.0427" y1="73.2241" x2="98.9574" y2="106.776" gradientUnits="userSpaceOnUse">
<stop stop-color="#AD3F16"/>
<stop offset="0.492" stop-color="#B85515"/>
<stop offset="1" stop-color="#C26715"/>
</linearGradient>
<linearGradient id="paint1_linear" x1="103.333" y1="78.3523" x2="103.333" y2="106.054" gradientUnits="userSpaceOnUse">
<stop stop-color="#FFD747"/>
<stop offset="0.482" stop-color="#FFD645"/>
<stop offset="1" stop-color="#F5BC00"/>
</linearGradient>
<linearGradient id="paint2_linear" x1="94.32" y1="86.3871" x2="94.32" y2="124.966" gradientUnits="userSpaceOnUse">
<stop stop-color="#FED100"/>
<stop offset="1" stop-color="#E36001"/>
</linearGradient>
<linearGradient id="paint3_linear" x1="86.048" y1="110.763" x2="105.952" y2="145.237" gradientUnits="userSpaceOnUse">
<stop stop-color="#21AD64"/>
<stop offset="1" stop-color="#088242"/>
</linearGradient>
<linearGradient id="paint4_linear" x1="82.0587" y1="114.205" x2="122.776" y2="154.923" gradientUnits="userSpaceOnUse">
<stop stop-color="#FED100"/>
<stop offset="1" stop-color="#E36001"/>
</linearGradient>
<linearGradient id="paint5_linear" x1="92.928" y1="147.912" x2="99.072" y2="182.755" gradientUnits="userSpaceOnUse">
<stop stop-color="#3079D6"/>
<stop offset="1" stop-color="#297CD2"/>
</linearGradient>
<radialGradient id="paint6_radial" cx="0" cy="0" r="1" gradientUnits="userSpaceOnUse" gradientTransform="translate(96 165.325) scale(11.312)">
<stop offset="0.611" stop-color="#FFED54"/>
<stop offset="0.825" stop-color="#FFD22D"/>
<stop offset="1" stop-color="#FFB300"/>
</radialGradient>
<linearGradient id="paint7_linear" x1="87.4694" y1="156.803" x2="103.093" y2="172.427" gradientUnits="userSpaceOnUse">
<stop stop-color="#FED100"/>
<stop offset="1" stop-color="#E36001"/>
</linearGradient>
<linearGradient id="paint8_linear" x1="149.333" y1="122.667" x2="149.333" y2="133.333" gradientUnits="userSpaceOnUse">
<stop stop-color="#FF2773"/>
<stop offset="1" stop-color="#2B1E70"/>
</linearGradient>
<linearGradient id="paint9_linear" x1="149.333" y1="160" x2="149.333" y2="170.667" gradientUnits="userSpaceOnUse">
<stop stop-color="#FF2773"/>
<stop offset="1" stop-color="#2B1E70"/>
</linearGradient>
<linearGradient id="paint10_linear" x1="149.333" y1="85.3335" x2="149.333" y2="96.0002" gradientUnits="userSpaceOnUse">
<stop stop-color="#FF2773"/>
<stop offset="1" stop-color="#2B1E70"/>
</linearGradient>
</defs>
</svg>
