<?xml version="1.0" encoding="UTF-8"?>
<svg xmlns="http://www.w3.org/2000/svg" xmlns:xlink="http://www.w3.org/1999/xlink" width="48pt" height="48pt" viewBox="0 0 48 48" version="1.1">
<defs>
<linearGradient id="linear0" gradientUnits="userSpaceOnUse" x1="39.026081" y1="12.39475" x2="46.973919" y2="57.480251" gradientTransform="matrix(0.27907,0,0,0.27907,0,0)">
<stop offset="0" style="stop-color:rgb(67.843139%,24.705882%,8.627451%);stop-opacity:1;"/>
<stop offset="0.492" style="stop-color:rgb(72.156864%,33.333334%,8.235294%);stop-opacity:1;"/>
<stop offset="1" style="stop-color:rgb(76.078433%,40.392157%,8.235294%);stop-opacity:1;"/>
</linearGradient>
<linearGradient id="linear1" gradientUnits="userSpaceOnUse" x1="52.854172" y1="19.2855" x2="52.854172" y2="56.509171" gradientTransform="matrix(0.27907,0,0,0.27907,0,0)">
<stop offset="0" style="stop-color:rgb(100%,84.313726%,27.843139%);stop-opacity:1;"/>
<stop offset="0.482" style="stop-color:rgb(100%,83.92157%,27.058825%);stop-opacity:1;"/>
<stop offset="1" style="stop-color:rgb(96.078432%,73.725492%,0%);stop-opacity:1;"/>
</linearGradient>
<linearGradient id="linear2" gradientUnits="userSpaceOnUse" x1="40.7425" y1="30.082081" x2="40.7425" y2="81.922173" gradientTransform="matrix(0.27907,0,0,0.27907,0,0)">
<stop offset="0" style="stop-color:rgb(99.607843%,81.960785%,0%);stop-opacity:1;"/>
<stop offset="1" style="stop-color:rgb(89.019608%,37.64706%,0.392157%);stop-opacity:1;"/>
</linearGradient>
<linearGradient id="linear3" gradientUnits="userSpaceOnUse" x1="29.627001" y1="62.83733" x2="56.373001" y2="109.162666" gradientTransform="matrix(0.27907,0,0,0.27907,0,0)">
<stop offset="0" style="stop-color:rgb(12.941177%,67.843139%,39.215687%);stop-opacity:1;"/>
<stop offset="1" style="stop-color:rgb(3.137255%,50.980395%,25.882354%);stop-opacity:1;"/>
</linearGradient>
<linearGradient id="linear4" gradientUnits="userSpaceOnUse" x1="24.266331" y1="67.463417" x2="78.980247" y2="122.17733" gradientTransform="matrix(0.27907,0,0,0.27907,0,0)">
<stop offset="0" style="stop-color:rgb(99.607843%,81.960785%,0%);stop-opacity:1;"/>
<stop offset="1" style="stop-color:rgb(89.019608%,37.64706%,0.392157%);stop-opacity:1;"/>
</linearGradient>
<linearGradient id="linear5" gradientUnits="userSpaceOnUse" x1="38.872002" y1="112.756752" x2="47.127998" y2="159.576584" gradientTransform="matrix(0.27907,0,0,0.27907,0,0)">
<stop offset="0" style="stop-color:rgb(18.82353%,47.450981%,83.92157%);stop-opacity:1;"/>
<stop offset="1" style="stop-color:rgb(16.078432%,48.627451%,82.352942%);stop-opacity:1;"/>
</linearGradient>
<radialGradient id="radial0" gradientUnits="userSpaceOnUse" cx="43" cy="136.155914" fx="43" fy="136.155914" r="15.2005" gradientTransform="matrix(0.27907,0,0,0.27907,0,0)">
<stop offset="0.611" style="stop-color:rgb(100%,92.941177%,32.941177%);stop-opacity:1;"/>
<stop offset="0.825" style="stop-color:rgb(100%,82.352942%,17.647059%);stop-opacity:1;"/>
<stop offset="1" style="stop-color:rgb(100%,70.19608%,0%);stop-opacity:1;"/>
</radialGradient>
<linearGradient id="linear6" gradientUnits="userSpaceOnUse" x1="31.536921" y1="124.703583" x2="52.53167" y2="145.698334" gradientTransform="matrix(0.27907,0,0,0.27907,0,0)">
<stop offset="0" style="stop-color:rgb(99.607843%,81.960785%,0%);stop-opacity:1;"/>
<stop offset="1" style="stop-color:rgb(89.019608%,37.64706%,0.392157%);stop-opacity:1;"/>
</linearGradient>
<linearGradient id="linear7" gradientUnits="userSpaceOnUse" x1="114.666672" y1="78.833328" x2="114.666672" y2="93.166672" gradientTransform="matrix(0.27907,0,0,0.27907,0,0)">
<stop offset="0" style="stop-color:rgb(100%,15.294118%,45.09804%);stop-opacity:1;"/>
<stop offset="1" style="stop-color:rgb(16.862746%,11.764706%,43.921569%);stop-opacity:1;"/>
</linearGradient>
<linearGradient id="linear8" gradientUnits="userSpaceOnUse" x1="114.666672" y1="129" x2="114.666672" y2="143.333328" gradientTransform="matrix(0.27907,0,0,0.27907,0,0)">
<stop offset="0" style="stop-color:rgb(100%,15.294118%,45.09804%);stop-opacity:1;"/>
<stop offset="1" style="stop-color:rgb(16.862746%,11.764706%,43.921569%);stop-opacity:1;"/>
</linearGradient>
<linearGradient id="linear9" gradientUnits="userSpaceOnUse" x1="114.666672" y1="28.66667" x2="114.666672" y2="43" gradientTransform="matrix(0.27907,0,0,0.27907,0,0)">
<stop offset="0" style="stop-color:rgb(100%,15.294118%,45.09804%);stop-opacity:1;"/>
<stop offset="1" style="stop-color:rgb(16.862746%,11.764706%,43.921569%);stop-opacity:1;"/>
</linearGradient>
</defs>
<g id="surface14130447">
<path style=" stroke:none;fill-rule:nonzero;fill:url(#linear0);" d="M 8 4 L 16 4 C 17.105469 4 18 4.894531 18 6 L 18 13.5 C 18 14.605469 17.105469 15.5 16 15.5 L 8 15.5 C 6.894531 15.5 6 14.605469 6 13.5 L 6 6 C 6 4.894531 6.894531 4 8 4 Z M 8 4 "/>
<path style=" stroke:none;fill-rule:nonzero;fill:rgb(100%,97.647059%,76.862746%);fill-opacity:1;" d="M 13 7.5 C 13 8.328125 13.671875 9 14.5 9 C 15.328125 9 16 8.328125 16 7.5 C 16 6.671875 15.328125 6 14.5 6 C 13.671875 6 13 6.671875 13 7.5 "/>
<path style=" stroke:none;fill-rule:nonzero;fill:url(#linear1);" d="M 18 13.101562 L 18 14 C 18 14.140625 17.988281 14.269531 17.960938 14.398438 C 17.851562 14.941406 17.519531 15.398438 17.070312 15.671875 C 16.761719 15.878906 16.390625 16 16 16 L 11.5 16 L 11.5 14.390625 L 13.449219 12.550781 L 14.789062 11.269531 C 15.191406 10.898438 15.808594 10.910156 16.191406 11.289062 Z M 18 13.101562 "/>
<path style=" stroke:none;fill-rule:nonzero;fill:url(#linear2);" d="M 16.738281 15.839844 C 16.511719 15.949219 16.261719 16 16 16 L 8 16 C 7.019531 16 6.199219 15.289062 6.03125 14.351562 C 6.011719 14.238281 6 14.121094 6 14 L 6 11.921875 L 8.789062 9.269531 C 9.191406 8.898438 9.808594 8.910156 10.191406 9.289062 Z M 16.738281 15.839844 "/>
<path style=" stroke:none;fill-rule:nonzero;fill:url(#linear3);" d="M 8 18 L 16 18 C 17.105469 18 18 18.894531 18 20 L 18 28 C 18 29.105469 17.105469 30 16 30 L 8 30 C 6.894531 30 6 29.105469 6 28 L 6 20 C 6 18.894531 6.894531 18 8 18 Z M 8 18 "/>
<path style=" stroke:none;fill-rule:nonzero;fill:rgb(100%,100%,100%);fill-opacity:1;" d="M 15.265625 24.199219 C 15.097656 24.101562 14.820312 24.039062 14.496094 24 C 14.820312 23.960938 15.097656 23.898438 15.265625 23.796875 C 15.96875 23.382812 16.207031 22.46875 15.804688 21.75 C 15.398438 21.03125 14.503906 20.785156 13.804688 21.203125 C 13.632812 21.300781 13.441406 21.519531 13.246094 21.789062 C 13.375 21.480469 13.464844 21.199219 13.464844 20.996094 C 13.464844 20.167969 12.808594 19.5 12 19.5 C 11.191406 19.5 10.535156 20.167969 10.535156 20.996094 C 10.535156 21.199219 10.625 21.480469 10.753906 21.789062 C 10.558594 21.519531 10.363281 21.300781 10.195312 21.203125 C 9.496094 20.785156 8.597656 21.03125 8.195312 21.75 C 7.792969 22.46875 8.03125 23.382812 8.730469 23.796875 C 8.902344 23.898438 9.179688 23.960938 9.503906 24 C 9.179688 24.039062 8.902344 24.101562 8.730469 24.199219 C 8.03125 24.613281 7.792969 25.53125 8.195312 26.25 C 8.597656 26.96875 9.496094 27.214844 10.195312 26.796875 C 10.363281 26.699219 10.558594 26.480469 10.753906 26.210938 C 10.625 26.519531 10.535156 26.800781 10.535156 27 C 10.535156 27.832031 11.191406 28.5 12 28.5 C 12.808594 28.5 13.464844 27.832031 13.464844 27 C 13.464844 26.800781 13.375 26.519531 13.246094 26.210938 C 13.441406 26.480469 13.636719 26.699219 13.804688 26.796875 C 14.503906 27.214844 15.398438 26.96875 15.804688 26.25 C 16.207031 25.53125 15.96875 24.613281 15.265625 24.199219 Z M 15.265625 24.199219 "/>
<path style=" stroke:none;fill-rule:nonzero;fill:url(#linear4);" d="M 13.5 24.054688 C 13.5 24.882812 12.828125 25.554688 12 25.554688 C 11.171875 25.554688 10.5 24.882812 10.5 24.054688 C 10.5 23.226562 11.171875 22.554688 12 22.554688 C 12.828125 22.554688 13.5 23.226562 13.5 24.054688 "/>
<path style=" stroke:none;fill-rule:nonzero;fill:url(#linear5);" d="M 8 32 L 16 32 C 17.105469 32 18 32.894531 18 34 L 18 42 C 18 43.105469 17.105469 44 16 44 L 8 44 C 6.894531 44 6 43.105469 6 42 L 6 34 C 6 32.894531 6.894531 32 8 32 Z M 8 32 "/>
<path style=" stroke:none;fill-rule:nonzero;fill:url(#radial0);" d="M 15.492188 39.453125 C 15.402344 39.109375 15.5 38.738281 15.753906 38.488281 L 16.242188 37.996094 L 15.753906 37.507812 C 15.5 37.253906 15.402344 36.886719 15.492188 36.539062 L 15.671875 35.875 L 15.003906 35.695312 C 14.65625 35.605469 14.386719 35.335938 14.296875 34.988281 L 14.117188 34.324219 L 13.453125 34.503906 C 13.109375 34.59375 12.742188 34.496094 12.488281 34.242188 L 12 33.753906 L 11.511719 34.242188 C 11.257812 34.496094 10.890625 34.59375 10.546875 34.503906 L 9.878906 34.324219 L 9.699219 34.992188 C 9.605469 35.335938 9.335938 35.605469 8.992188 35.699219 L 8.324219 35.878906 L 8.503906 36.546875 C 8.59375 36.890625 8.496094 37.257812 8.242188 37.511719 L 7.757812 37.996094 L 8.242188 38.484375 C 8.496094 38.738281 8.59375 39.105469 8.503906 39.449219 L 8.324219 40.117188 L 8.988281 40.296875 C 9.335938 40.390625 9.605469 40.660156 9.695312 41.003906 L 9.875 41.671875 L 10.546875 41.492188 C 10.890625 41.402344 11.257812 41.5 11.511719 41.753906 L 12 42.238281 L 12.488281 41.75 C 12.742188 41.496094 13.109375 41.398438 13.453125 41.492188 L 14.121094 41.671875 L 14.296875 41.003906 C 14.390625 40.660156 14.660156 40.390625 15.003906 40.296875 L 15.671875 40.117188 Z M 15.492188 39.453125 "/>
<path style=" stroke:none;fill-rule:nonzero;fill:url(#linear6);" d="M 9 38 C 9 39.65625 10.34375 41 12 41 C 13.65625 41 15 39.65625 15 38 C 15 36.34375 13.65625 35 12 35 C 10.34375 35 9 36.34375 9 38 "/>
<path style=" stroke:none;fill-rule:nonzero;fill:url(#linear7);" d="M 23 22 L 41 22 C 41.550781 22 42 22.449219 42 23 L 42 25 C 42 25.550781 41.550781 26 41 26 L 23 26 C 22.449219 26 22 25.550781 22 25 L 22 23 C 22 22.449219 22.449219 22 23 22 Z M 23 22 "/>
<path style=" stroke:none;fill-rule:nonzero;fill:url(#linear8);" d="M 23 36 L 41 36 C 41.550781 36 42 36.449219 42 37 L 42 39 C 42 39.550781 41.550781 40 41 40 L 23 40 C 22.449219 40 22 39.550781 22 39 L 22 37 C 22 36.449219 22.449219 36 23 36 Z M 23 36 "/>
<path style=" stroke:none;fill-rule:nonzero;fill:url(#linear9);" d="M 23 8 L 41 8 C 41.550781 8 42 8.449219 42 9 L 42 11 C 42 11.550781 41.550781 12 41 12 L 23 12 C 22.449219 12 22 11.550781 22 11 L 22 9 C 22 8.449219 22.449219 8 23 8 Z M 23 8 "/>
</g>
</svg>
